<svg width="172" height="29" viewBox="0 0 172 29" fill="none" xmlns="http://www.w3.org/2000/svg">
<path d="M15.2 10.98C15.1333 11.0933 15.0633 11.1767 14.99 11.23C14.9167 11.2833 14.8233 11.31 14.71 11.31C14.59 11.31 14.4533 11.2567 14.3 11.15C14.1467 11.0367 13.9533 10.9133 13.72 10.78C13.4933 10.64 13.22 10.5167 12.9 10.41C12.58 10.2967 12.1967 10.24 11.75 10.24C11.33 10.24 10.96 10.2967 10.64 10.41C10.3267 10.5167 10.0633 10.6667 9.85 10.86C9.63667 11.0467 9.47333 11.27 9.36 11.53C9.25333 11.7833 9.2 12.06 9.2 12.36C9.2 12.7467 9.29667 13.0667 9.49 13.32C9.69 13.5733 9.95 13.79 10.27 13.97C10.59 14.15 10.9533 14.3067 11.36 14.44C11.7667 14.5733 12.1833 14.7133 12.61 14.86C13.0367 15 13.4533 15.1633 13.86 15.35C14.2667 15.5367 14.63 15.7733 14.95 16.06C15.27 16.34 15.5267 16.6867 15.72 17.1C15.92 17.5067 16.02 18.0067 16.02 18.6C16.02 19.2333 15.91 19.8267 15.69 20.38C15.4767 20.9333 15.1633 21.4167 14.75 21.83C14.3367 22.2433 13.8267 22.57 13.22 22.81C12.62 23.0433 11.9367 23.16 11.17 23.16C10.71 23.16 10.2633 23.1133 9.83 23.02C9.39667 22.9333 8.98667 22.81 8.6 22.65C8.21333 22.4833 7.85 22.2867 7.51 22.06C7.17667 21.8267 6.87667 21.5667 6.61 21.28L7.22 20.26C7.28 20.18 7.35 20.1133 7.43 20.06C7.51667 20.0067 7.61333 19.98 7.72 19.98C7.86 19.98 8.02 20.0533 8.2 20.2C8.38667 20.3467 8.61333 20.51 8.88 20.69C9.15333 20.8633 9.47667 21.0233 9.85 21.17C10.23 21.3167 10.69 21.39 11.23 21.39C11.67 21.39 12.0633 21.3333 12.41 21.22C12.7567 21.1 13.0467 20.9333 13.28 20.72C13.52 20.5 13.7033 20.2367 13.83 19.93C13.9567 19.6233 14.02 19.2833 14.02 18.91C14.02 18.49 13.9233 18.1467 13.73 17.88C13.5367 17.6133 13.28 17.39 12.96 17.21C12.64 17.03 12.2767 16.8767 11.87 16.75C11.4633 16.6233 11.0467 16.4933 10.62 16.36C10.1933 16.22 9.77667 16.06 9.37 15.88C8.96333 15.7 8.6 15.4667 8.28 15.18C7.96 14.8867 7.70333 14.5233 7.51 14.09C7.31667 13.65 7.22 13.11 7.22 12.47C7.22 11.9567 7.32 11.46 7.52 10.98C7.72 10.5 8.01 10.0767 8.39 9.71C8.77667 9.33667 9.25 9.04 9.81 8.82C10.37 8.59333 11.01 8.48 11.73 8.48C12.5367 8.48 13.2767 8.61 13.95 8.87C14.63 9.12333 15.22 9.49 15.72 9.97L15.2 10.98ZM18.0341 23V12.84H19.2041C19.4774 12.84 19.6474 12.97 19.7141 13.23L19.8541 14.2C20.2274 13.7533 20.6407 13.39 21.0941 13.11C21.5541 12.8233 22.0907 12.68 22.7041 12.68C23.3774 12.68 23.9241 12.8667 24.3441 13.24C24.7641 13.6067 25.0707 14.1067 25.2641 14.74C25.4107 14.38 25.6007 14.07 25.8341 13.81C26.0674 13.55 26.3274 13.3367 26.6141 13.17C26.9007 13.0033 27.2041 12.88 27.5241 12.8C27.8507 12.72 28.1807 12.68 28.5141 12.68C29.0541 12.68 29.5341 12.7667 29.9541 12.94C30.3807 13.1067 30.7407 13.3533 31.0341 13.68C31.3274 14.0067 31.5507 14.41 31.7041 14.89C31.8574 15.37 31.9341 15.9167 31.9341 16.53V23H29.9741V16.53C29.9741 15.77 29.8074 15.1967 29.4741 14.81C29.1474 14.4233 28.6674 14.23 28.0341 14.23C27.7541 14.23 27.4874 14.28 27.2341 14.38C26.9807 14.4733 26.7574 14.6167 26.5641 14.81C26.3774 15.0033 26.2274 15.2433 26.1141 15.53C26.0074 15.8167 25.9541 16.15 25.9541 16.53V23H23.9941V16.53C23.9941 15.7433 23.8374 15.1633 23.5241 14.79C23.2107 14.4167 22.7507 14.23 22.1441 14.23C21.7241 14.23 21.3341 14.34 20.9741 14.56C20.6141 14.78 20.2841 15.08 19.9841 15.46V23H18.0341ZM40.0175 18.49C39.2242 18.5167 38.5508 18.58 37.9975 18.68C37.4442 18.7733 36.9942 18.9 36.6475 19.06C36.3008 19.22 36.0508 19.41 35.8975 19.63C35.7442 19.8433 35.6675 20.0833 35.6675 20.35C35.6675 20.6033 35.7075 20.8233 35.7875 21.01C35.8742 21.19 35.9875 21.34 36.1275 21.46C36.2742 21.5733 36.4442 21.6567 36.6375 21.71C36.8308 21.7633 37.0408 21.79 37.2675 21.79C37.5675 21.79 37.8408 21.76 38.0875 21.7C38.3408 21.64 38.5775 21.5567 38.7975 21.45C39.0175 21.3367 39.2275 21.2 39.4275 21.04C39.6275 20.88 39.8242 20.6967 40.0175 20.49V18.49ZM34.2975 14.26C34.8642 13.72 35.4775 13.3167 36.1375 13.05C36.8042 12.7833 37.5342 12.65 38.3275 12.65C38.9075 12.65 39.4208 12.7467 39.8675 12.94C40.3142 13.1267 40.6908 13.39 40.9975 13.73C41.3042 14.07 41.5342 14.4767 41.6875 14.95C41.8475 15.4233 41.9275 15.9467 41.9275 16.52V23H41.0575C40.8642 23 40.7175 22.97 40.6175 22.91C40.5175 22.8433 40.4375 22.7233 40.3775 22.55L40.1675 21.66C39.9075 21.9 39.6508 22.1133 39.3975 22.3C39.1442 22.48 38.8775 22.6367 38.5975 22.77C38.3242 22.8967 38.0308 22.9933 37.7175 23.06C37.4042 23.1267 37.0575 23.16 36.6775 23.16C36.2775 23.16 35.9008 23.1067 35.5475 23C35.2008 22.8867 34.8975 22.7167 34.6375 22.49C34.3775 22.2633 34.1708 21.98 34.0175 21.64C33.8708 21.3 33.7975 20.9033 33.7975 20.45C33.7975 20.05 33.9042 19.6667 34.1175 19.3C34.3375 18.9267 34.6908 18.5933 35.1775 18.3C35.6708 18.0067 36.3108 17.7667 37.0975 17.58C37.8908 17.3933 38.8642 17.2867 40.0175 17.26V16.52C40.0175 15.7533 39.8542 15.18 39.5275 14.8C39.2008 14.42 38.7208 14.23 38.0875 14.23C37.6608 14.23 37.3008 14.2833 37.0075 14.39C36.7208 14.4967 36.4708 14.6167 36.2575 14.75C36.0508 14.8767 35.8675 14.9933 35.7075 15.1C35.5542 15.2067 35.3942 15.26 35.2275 15.26C35.0942 15.26 34.9775 15.2233 34.8775 15.15C34.7842 15.0767 34.7075 14.99 34.6475 14.89L34.2975 14.26ZM46.378 14.79C46.7046 14.1233 47.098 13.6 47.558 13.22C48.018 12.84 48.5713 12.65 49.218 12.65C49.438 12.65 49.6446 12.6767 49.838 12.73C50.038 12.7767 50.2113 12.85 50.358 12.95L50.228 14.42C50.1813 14.6 50.0713 14.69 49.898 14.69C49.8046 14.69 49.6646 14.6733 49.478 14.64C49.2913 14.6 49.0913 14.58 48.878 14.58C48.5646 14.58 48.288 14.6267 48.048 14.72C47.808 14.8067 47.5913 14.94 47.398 15.12C47.2113 15.2933 47.0446 15.51 46.898 15.77C46.7513 16.0233 46.6146 16.3133 46.488 16.64V23H44.538V12.84H45.658C45.8713 12.84 46.0146 12.88 46.088 12.96C46.168 13.0333 46.2246 13.1667 46.258 13.36L46.378 14.79ZM55.0422 23.16C54.2222 23.16 53.5889 22.93 53.1422 22.47C52.7022 22.01 52.4822 21.3533 52.4822 20.5V14.42H51.3022C51.1889 14.42 51.0922 14.3867 51.0122 14.32C50.9389 14.2467 50.9022 14.14 50.9022 14V13.21L52.5522 12.98L52.9922 9.95C53.0189 9.83667 53.0689 9.75 53.1422 9.69C53.2222 9.62333 53.3222 9.59 53.4422 9.59H54.4322V13H57.3122V14.42H54.4322V20.37C54.4322 20.77 54.5289 21.07 54.7222 21.27C54.9222 21.4633 55.1755 21.56 55.4822 21.56C55.6622 21.56 55.8155 21.5367 55.9422 21.49C56.0755 21.4433 56.1889 21.3933 56.2822 21.34C56.3755 21.28 56.4555 21.2267 56.5222 21.18C56.5889 21.1333 56.6489 21.11 56.7022 21.11C56.7689 21.11 56.8189 21.1267 56.8522 21.16C56.8922 21.1867 56.9322 21.2333 56.9722 21.3L57.5522 22.24C57.2322 22.5333 56.8522 22.76 56.4122 22.92C55.9722 23.08 55.5155 23.16 55.0422 23.16Z" fill="black"/>
<path d="M71.6883 8.49V23H68.6683V16.75H62.2783V23H59.2583V8.49H62.2783V14.65H68.6683V8.49H71.6883ZM78.6845 12.53C79.4579 12.53 80.1612 12.6533 80.7945 12.9C81.4279 13.1467 81.9712 13.5 82.4245 13.96C82.8779 14.4133 83.2279 14.9667 83.4745 15.62C83.7212 16.2733 83.8445 17.01 83.8445 17.83C83.8445 18.65 83.7212 19.39 83.4745 20.05C83.2279 20.7033 82.8779 21.26 82.4245 21.72C81.9712 22.18 81.4279 22.5333 80.7945 22.78C80.1612 23.0267 79.4579 23.15 78.6845 23.15C77.9045 23.15 77.1945 23.0267 76.5545 22.78C75.9212 22.5333 75.3779 22.18 74.9245 21.72C74.4712 21.26 74.1179 20.7033 73.8645 20.05C73.6179 19.39 73.4945 18.65 73.4945 17.83C73.4945 17.01 73.6179 16.2733 73.8645 15.62C74.1179 14.9667 74.4712 14.4133 74.9245 13.96C75.3779 13.5 75.9212 13.1467 76.5545 12.9C77.1945 12.6533 77.9045 12.53 78.6845 12.53ZM78.6845 21.08C79.4712 21.08 80.0545 20.81 80.4345 20.27C80.8145 19.7233 81.0045 18.9133 81.0045 17.84C81.0045 16.7733 80.8145 15.97 80.4345 15.43C80.0545 14.8833 79.4712 14.61 78.6845 14.61C77.8779 14.61 77.2845 14.8833 76.9045 15.43C76.5245 15.97 76.3345 16.7733 76.3345 17.84C76.3345 18.9133 76.5245 19.7233 76.9045 20.27C77.2845 20.81 77.8779 21.08 78.6845 21.08ZM85.5775 23V12.69H87.2775C87.6242 12.69 87.8542 12.85 87.9675 13.17L88.1275 13.84C88.3075 13.6533 88.4908 13.48 88.6775 13.32C88.8708 13.16 89.0775 13.0233 89.2975 12.91C89.5175 12.79 89.7542 12.6967 90.0075 12.63C90.2675 12.5633 90.5475 12.53 90.8475 12.53C91.4808 12.53 92.0042 12.7 92.4175 13.04C92.8308 13.3733 93.1442 13.82 93.3575 14.38C93.5242 14.0533 93.7275 13.7733 93.9675 13.54C94.2142 13.3 94.4808 13.1067 94.7675 12.96C95.0608 12.8133 95.3675 12.7067 95.6875 12.64C96.0142 12.5667 96.3408 12.53 96.6675 12.53C97.2475 12.53 97.7608 12.6167 98.2075 12.79C98.6542 12.9633 99.0275 13.22 99.3275 13.56C99.6342 13.8933 99.8675 14.3033 100.028 14.79C100.188 15.2767 100.268 15.83 100.268 16.45V23H97.5075V16.45C97.5075 15.2433 96.9908 14.64 95.9575 14.64C95.7242 14.64 95.5075 14.68 95.3075 14.76C95.1142 14.8333 94.9408 14.9467 94.7875 15.1C94.6408 15.2533 94.5242 15.4433 94.4375 15.67C94.3575 15.8967 94.3175 16.1567 94.3175 16.45V23H91.5575V16.45C91.5575 15.7967 91.4275 15.3333 91.1675 15.06C90.9142 14.78 90.5375 14.64 90.0375 14.64C89.7175 14.64 89.4142 14.7167 89.1275 14.87C88.8475 15.0167 88.5842 15.2233 88.3375 15.49V23H85.5775ZM108.993 16.63C108.993 16.3433 108.953 16.07 108.873 15.81C108.799 15.55 108.679 15.32 108.513 15.12C108.346 14.92 108.136 14.7633 107.883 14.65C107.629 14.53 107.326 14.47 106.973 14.47C106.313 14.47 105.796 14.6567 105.423 15.03C105.049 15.4033 104.806 15.9367 104.693 16.63H108.993ZM104.653 18.27C104.739 19.2367 105.013 19.9433 105.473 20.39C105.939 20.8367 106.546 21.06 107.293 21.06C107.673 21.06 107.999 21.0167 108.273 20.93C108.553 20.8367 108.796 20.7367 109.003 20.63C109.216 20.5167 109.406 20.4167 109.573 20.33C109.746 20.2367 109.916 20.19 110.083 20.19C110.296 20.19 110.463 20.27 110.583 20.43L111.383 21.43C111.089 21.77 110.766 22.0533 110.413 22.28C110.059 22.5 109.693 22.6767 109.313 22.81C108.933 22.9367 108.549 23.0233 108.163 23.07C107.776 23.1233 107.403 23.15 107.043 23.15C106.323 23.15 105.649 23.0333 105.023 22.8C104.403 22.56 103.859 22.21 103.393 21.75C102.933 21.2833 102.569 20.7067 102.303 20.02C102.036 19.3333 101.903 18.5367 101.903 17.63C101.903 16.93 102.016 16.27 102.243 15.65C102.476 15.03 102.809 14.49 103.243 14.03C103.676 13.57 104.203 13.2067 104.823 12.94C105.443 12.6667 106.143 12.53 106.923 12.53C107.583 12.53 108.189 12.6367 108.743 12.85C109.303 13.0567 109.783 13.36 110.183 13.76C110.589 14.16 110.903 14.6533 111.123 15.24C111.349 15.82 111.463 16.4833 111.463 17.23C111.463 17.4367 111.453 17.6067 111.433 17.74C111.413 17.8733 111.379 17.98 111.333 18.06C111.286 18.14 111.223 18.1967 111.143 18.23C111.063 18.2567 110.959 18.27 110.833 18.27H104.653Z" fill="#274C77"/>
<path d="M19.5833 10.25H23L11.6111 0L0.222229 10.25H3.6389L11.6111 3.06361L19.5833 10.25ZM5.91667 2.06139V0H2.50001V5.125L5.91667 2.06139Z" fill="#274C77"/>
</svg>
