<svg width="25" height="25" viewBox="0 0 25 25" fill="none" xmlns="http://www.w3.org/2000/svg">
<path d="M22.9166 12.5L23.6975 13.1247C23.9897 12.7595 23.9897 12.2405 23.6975 11.8753L22.9166 12.5ZM13.5416 11.5C12.9893 11.5 12.5416 11.9477 12.5416 12.5C12.5416 13.0523 12.9893 13.5 13.5416 13.5L13.5416 11.5ZM19.5308 18.333L23.6975 13.1247L22.1358 11.8753L17.9691 17.0836L19.5308 18.333ZM23.6975 11.8753L19.5308 6.66697L17.9691 7.91636L22.1358 13.1247L23.6975 11.8753ZM22.9166 11.5L13.5416 11.5L13.5416 13.5L22.9166 13.5L22.9166 11.5Z" fill="#274C77"/>
<path d="M14.5834 16.5292L14.5834 17.4448C14.5834 19.0632 14.5834 19.8723 14.1094 20.4318C13.6355 20.9913 12.8373 21.1244 11.241 21.3904L9.06976 21.7523C5.82667 22.2928 4.20512 22.563 3.14425 21.6643C2.08337 20.7657 2.08337 19.1217 2.08337 15.8339L2.08337 9.16611C2.08337 5.87828 2.08337 4.23436 3.14425 3.33566C4.20512 2.43697 5.82667 2.70723 9.06977 3.24774L11.241 3.60961C12.8373 3.87566 13.6355 4.00869 14.1094 4.56818C14.5834 5.12767 14.5834 5.93684 14.5834 7.55518L14.5834 8.26463" stroke="#274C77" stroke-width="2" stroke-linecap="round"/>
</svg>
