<svg width="30" height="30" viewBox="0 0 30 30" fill="none" xmlns="http://www.w3.org/2000/svg">
<path d="M17.6702 4.20177L16.6751 4.30128V4.30128L17.6702 4.20177ZM17.3238 2.81532L16.595 3.5L16.595 3.5L17.3238 2.81532ZM18.3407 6.62471L17.8511 7.49668L18.3407 6.62471ZM18.5599 6.71549L18.8303 5.75274L18.8303 5.75274L18.5599 6.71549ZM20.7472 5.47637L21.3805 6.25033V6.25033L20.7472 5.47637ZM21.9724 4.74092L22.0037 5.74043L21.9724 4.74092ZM22.1342 4.74899L22.2648 3.75755L22.2648 3.75755L22.1342 4.74899ZM23.2802 5.6027L22.5731 6.30981L22.5731 6.30981L23.2802 5.6027ZM24.397 6.71958L25.1041 6.01247L25.1041 6.01247L24.397 6.71958ZM25.2508 7.86563L26.2423 7.73516V7.73515L25.2508 7.86563ZM25.2589 8.0273L26.2584 8.05849V8.05847L25.2589 8.0273ZM24.5234 9.25262L23.7494 8.61939V8.61939L24.5234 9.25262ZM23.2842 11.4402L24.2469 11.1697L24.2469 11.1697L23.2842 11.4402ZM23.3749 11.6592L24.2469 11.1697L24.2469 11.1697L23.3749 11.6592ZM25.798 12.3298L25.6985 13.3249H25.6985L25.798 12.3298ZM27.1846 12.6762L26.4999 13.405L26.4999 13.405L27.1846 12.6762ZM27.2932 12.7962L28.0865 12.1874L28.0865 12.1874L27.2932 12.7962ZM27.2933 17.2037L26.4999 16.595L26.4999 16.595L27.2933 17.2037ZM27.1845 17.3239L26.4999 16.595L26.4999 16.595L27.1845 17.3239ZM25.7981 17.6702L25.8976 18.6652H25.8976L25.7981 17.6702ZM23.3755 18.3405L22.5036 17.8508L22.5036 17.8508L23.3755 18.3405ZM23.2846 18.56L22.3218 18.2897L22.3218 18.2898L23.2846 18.56ZM24.5236 20.747L25.2975 20.1137L24.5236 20.747ZM25.2589 21.972L24.2594 22.0033V22.0033L25.2589 21.972ZM25.2509 22.134L26.2423 22.2647L26.2423 22.2646L25.2509 22.134ZM24.3973 23.2797L25.1044 23.9868H25.1044L24.3973 23.2797ZM23.2802 24.3967L22.5731 23.6896H22.5731L23.2802 24.3967ZM22.1343 25.2505L22.0037 24.259H22.0037L22.1343 25.2505ZM21.9725 25.2585L21.9412 26.258H21.9412L21.9725 25.2585ZM20.7473 24.5231L20.114 25.297V25.297L20.7473 24.5231ZM18.5599 23.2839L18.8303 24.2467L18.8303 24.2467L18.5599 23.2839ZM18.3408 23.3747L17.8512 22.5027L17.8512 22.5028L18.3408 23.3747ZM17.6702 25.7979L16.6752 25.6984V25.6984L17.6702 25.7979ZM17.3237 27.1848L16.595 26.5L16.595 26.5L17.3237 27.1848ZM17.2039 27.2933L16.595 26.5L16.595 26.5L17.2039 27.2933ZM12.7962 27.2933L13.405 26.5L13.405 26.5L12.7962 27.2933ZM12.6762 27.1847L13.405 26.5L13.405 26.5L12.6762 27.1847ZM12.3298 25.7981L13.3248 25.6986L12.3298 25.7981ZM11.6591 23.3749L11.1697 24.247L11.1697 24.247L11.6591 23.3749ZM11.4403 23.2843L11.1697 24.247L11.1697 24.247L11.4403 23.2843ZM9.25249 24.5235L8.61925 23.7496L8.61925 23.7496L9.25249 24.5235ZM8.02703 25.2591L8.05814 26.2586H8.05815L8.02703 25.2591ZM7.86549 25.251L7.73506 26.2425L7.73508 26.2425L7.86549 25.251ZM6.71931 24.3972L6.0122 25.1043L6.0122 25.1043L6.71931 24.3972ZM5.60255 23.2804L4.89544 23.9875H4.89544L5.60255 23.2804ZM4.74877 22.1344L5.74022 22.0039H5.74022L4.74877 22.1344ZM4.74071 21.9727L5.74022 22.0039H5.74022L4.74071 21.9727ZM5.47622 20.7474L6.25018 21.3806H6.25018L5.47622 20.7474ZM6.71542 18.5598L5.75269 18.8303L5.75269 18.8303L6.71542 18.5598ZM6.62469 18.3408L7.4967 17.8513L7.4967 17.8513L6.62469 18.3408ZM4.20164 17.6702L4.10214 18.6652H4.10214L4.20164 17.6702ZM2.81516 17.3238L3.49986 16.595L3.49986 16.595L2.81516 17.3238ZM2.70652 17.2038L1.91319 17.8126L1.91319 17.8126L2.70652 17.2038ZM2.7066 12.7961L3.49986 13.405L3.49987 13.405L2.7066 12.7961ZM2.81507 12.6763L2.13028 11.9475L2.13028 11.9475L2.81507 12.6763ZM4.2018 12.3298L4.1023 11.3348H4.1023L4.2018 12.3298ZM6.62527 11.659L5.75317 11.1697H5.75317L6.62527 11.659ZM6.71585 11.4403L5.75317 11.1697L5.75317 11.1697L6.71585 11.4403ZM5.47644 9.25228L6.2504 8.61904L6.2504 8.61904L5.47644 9.25228ZM4.74076 8.02656L5.74028 7.99555V7.99555L4.74076 8.02656ZM4.7488 7.86525L3.75733 7.73494L3.75733 7.73494L4.7488 7.86525ZM5.60276 6.71885L6.30987 7.42596L6.30987 7.42596L5.60276 6.71885ZM6.71937 5.60225L6.01226 4.89514L6.01226 4.89514L6.71937 5.60225ZM7.86554 4.74841L7.99596 5.73986L7.99597 5.73986L7.86554 4.74841ZM8.02708 4.74035L7.99596 5.73986L7.99596 5.73986L8.02708 4.74035ZM9.25264 5.476L8.61941 6.24995L9.25264 5.476ZM11.4401 6.71525L11.1698 5.75248V5.75248L11.4401 6.71525ZM11.6594 6.62442L12.149 7.49636L12.149 7.49636L11.6594 6.62442ZM12.3298 4.20167L13.3249 4.30117V4.30117L12.3298 4.20167ZM12.6761 2.81537L11.9472 2.13073L11.9472 2.13073L12.6761 2.81537ZM12.7963 2.70661L12.1876 1.91321L12.1876 1.91321L12.7963 2.70661ZM17.2038 2.70665L16.595 3.5L16.595 3.5L17.2038 2.70665ZM18.6652 4.10227C18.6296 3.74607 18.5959 3.39396 18.5328 3.10395C18.4648 2.79144 18.3414 2.43796 18.0527 2.13063L16.595 3.5C16.5387 3.44008 16.5505 3.40015 16.5786 3.52918C16.6115 3.68069 16.6348 3.89812 16.6751 4.30128L18.6652 4.10227ZM18.8303 5.75274C18.9804 5.83702 18.9377 5.9473 18.8627 5.62996C18.7888 5.31698 18.7405 4.85485 18.6652 4.10227L16.6751 4.30128C16.7444 4.99417 16.8045 5.61615 16.9163 6.08959C17.027 6.55867 17.2473 7.15768 17.8511 7.49668L18.8303 5.75274ZM18.8303 5.75274L17.8511 7.49668C17.9895 7.57438 18.1367 7.63532 18.2894 7.67823L18.8303 5.75274ZM20.114 4.70241C19.5286 5.18135 19.1677 5.47391 18.8941 5.64296C18.6167 5.81436 18.6645 5.70619 18.8303 5.75274L18.2894 7.67823C18.9561 7.86548 19.5354 7.5977 19.9455 7.34433C20.3593 7.08861 20.8415 6.69127 21.3805 6.25033L20.114 4.70241ZM21.9412 3.74141C21.5197 3.75458 21.1825 3.91724 20.9135 4.09013C20.6638 4.25058 20.391 4.47574 20.114 4.70241L21.3805 6.25033C21.694 5.99377 21.8642 5.85651 21.9947 5.77269C22.1058 5.70131 22.0858 5.73786 22.0037 5.74043L21.9412 3.74141ZM22.2648 3.75755C22.1575 3.74342 22.0493 3.73803 21.9412 3.74141L22.0037 5.74043H22.0037L22.2648 3.75755ZM23.9873 4.8956C23.7341 4.64248 23.4851 4.39129 23.2527 4.2068C23.0022 4.008 22.6828 3.81259 22.2648 3.75755L22.0037 5.74043C21.9222 5.7297 21.906 5.69135 22.0094 5.77342C22.1309 5.86981 22.2866 6.02332 22.5731 6.30981L23.9873 4.8956ZM25.1041 6.01247L23.9873 4.89559L22.5731 6.30981L23.6899 7.42668L25.1041 6.01247ZM26.2423 7.73515C26.1872 7.31707 25.9918 6.99768 25.793 6.74714C25.6085 6.51464 25.3573 6.26561 25.1041 6.01247L23.6899 7.42668C23.9764 7.7132 24.13 7.86891 24.2264 7.99038C24.3084 8.09381 24.2701 8.07762 24.2594 7.99612L26.2423 7.73515ZM26.2584 8.05847C26.2618 7.95044 26.2564 7.84231 26.2423 7.73516L24.2594 7.99611L24.2594 7.99614L26.2584 8.05847ZM25.2973 9.88586C25.524 9.60879 25.7492 9.336 25.9097 9.0863C26.0826 8.81722 26.2452 8.47997 26.2584 8.05849L24.2594 7.99611C24.2619 7.91395 24.2985 7.89402 24.2271 8.00511C24.1433 8.13557 24.006 8.30579 23.7494 8.61939L25.2973 9.88586ZM24.2469 11.1697C24.2935 11.3355 24.1853 11.3833 24.3567 11.1059C24.5258 10.8323 24.8183 10.4713 25.2973 9.88586L23.7494 8.61939C23.3084 9.15837 22.911 9.64068 22.6553 10.0545C22.4019 10.4646 22.1341 11.044 22.3215 11.7107L24.2469 11.1697ZM24.2469 11.1697L24.2469 11.1697L22.3215 11.7107C22.3644 11.8634 22.4253 12.0104 22.5029 12.1487L24.2469 11.1697ZM25.8975 11.3348C25.1449 11.2595 24.6827 11.2112 24.3697 11.1372C24.0523 11.0623 24.1626 11.0196 24.2469 11.1697L22.5029 12.1487C22.8418 12.7526 23.4409 12.9729 23.91 13.0837C24.3835 13.1955 25.0056 13.2556 25.6985 13.3249L25.8975 11.3348ZM27.8693 11.9474C27.562 11.6586 27.2085 11.5352 26.8959 11.4672C26.6059 11.4041 26.2538 11.3704 25.8975 11.3348L25.6985 13.3249C26.1017 13.3652 26.3192 13.3885 26.4707 13.4214C26.5997 13.4495 26.5598 13.4613 26.4999 13.405L27.8693 11.9474ZM28.0865 12.1874C28.0207 12.1016 27.9481 12.0214 27.8693 11.9474L26.4999 13.405L26.4999 13.405L28.0865 12.1874ZM28.4999 14.2103C28.4999 13.8523 28.5014 13.4986 28.4675 13.2037C28.4309 12.8859 28.3432 12.5219 28.0865 12.1874L26.4999 13.405C26.4498 13.3398 26.4655 13.3012 26.4806 13.4324C26.4983 13.5864 26.4999 13.8051 26.4999 14.2103H28.4999ZM28.4999 15.7899V14.2103H26.4999V15.7899H28.4999ZM28.0867 17.8124C28.3433 17.4779 28.4309 17.114 28.4675 16.7963C28.5014 16.5014 28.4999 16.1478 28.4999 15.7899H26.4999C26.4999 16.195 26.4983 16.4136 26.4806 16.5676C26.4655 16.6988 26.4498 16.6602 26.4999 16.595L28.0867 17.8124ZM27.8691 18.0528C27.948 17.9787 28.0208 17.8983 28.0867 17.8124L26.4999 16.595L26.4999 16.595L27.8691 18.0528ZM25.8976 18.6652C26.2538 18.6296 26.6059 18.5959 26.8959 18.5328C27.2084 18.4649 27.5618 18.3415 27.8691 18.0528L26.4999 16.595C26.5598 16.5387 26.5997 16.5505 26.4707 16.5786C26.3192 16.6115 26.1018 16.6348 25.6986 16.6751L25.8976 18.6652ZM24.2474 18.8302C24.1631 18.9803 24.0529 18.9376 24.3702 18.8627C24.6831 18.7888 25.1452 18.7405 25.8976 18.6652L25.6986 16.6751C25.0058 16.7444 24.384 16.8045 23.9106 16.9162C23.4416 17.027 22.8427 17.2472 22.5036 17.8508L24.2474 18.8302ZM24.2474 18.8302L24.2474 18.8302L22.5036 17.8508C22.4258 17.9894 22.3648 18.1367 22.3218 18.2897L24.2474 18.8302ZM25.2975 20.1137C24.8187 19.5285 24.5262 19.1676 24.3571 18.8941C24.1858 18.6168 24.2939 18.6645 24.2474 18.8302L22.3218 18.2898C22.1347 18.9563 22.4025 19.5355 22.6558 19.9455C22.9115 20.3592 23.3088 20.8414 23.7496 21.3802L25.2975 20.1137ZM26.2584 21.9406C26.2452 21.5192 26.0826 21.1821 25.9097 20.9131C25.7493 20.6635 25.5242 20.3907 25.2975 20.1137L23.7496 21.3802C24.0061 21.6937 24.1434 21.8639 24.2272 21.9943C24.2985 22.1054 24.262 22.0855 24.2594 22.0033L26.2584 21.9406ZM26.2423 22.2646C26.2564 22.1572 26.2618 22.0489 26.2584 21.9406L24.2594 22.0033V22.0033L26.2423 22.2646ZM25.1044 23.9868C25.3574 23.7337 25.6086 23.4848 25.793 23.2523C25.9918 23.0019 26.1872 22.6826 26.2423 22.2647L24.2594 22.0033C24.2702 21.9218 24.3085 21.9057 24.2264 22.0091C24.1301 22.1305 23.9766 22.2862 23.6901 22.5726L25.1044 23.9868ZM23.9873 25.1038L25.1044 23.9868L23.6901 22.5726L22.5731 23.6896L23.9873 25.1038ZM22.2648 26.2419C22.6829 26.1868 23.0022 25.9914 23.2527 25.7926C23.4852 25.6081 23.7342 25.357 23.9873 25.1038L22.5731 23.6896C22.2866 23.9761 22.1309 24.1296 22.0095 24.226C21.906 24.3081 21.9222 24.2697 22.0037 24.259L22.2648 26.2419ZM21.9412 26.258C22.0494 26.2614 22.1576 26.256 22.2648 26.2419L22.0037 24.259H22.0037L21.9412 26.258ZM20.114 25.297C20.3911 25.5237 20.6639 25.7489 20.9135 25.9093C21.1826 26.0822 21.5198 26.2449 21.9412 26.258L22.0037 24.259C22.0859 24.2616 22.1058 24.2981 21.9947 24.2267C21.8643 24.1429 21.6941 24.0057 21.3805 23.7491L20.114 25.297ZM18.8303 24.2467C18.6646 24.2932 18.6168 24.1851 18.8942 24.3565C19.1677 24.5255 19.5287 24.8181 20.114 25.297L21.3805 23.7491C20.8416 23.3082 20.3593 22.9108 19.9455 22.6551C19.5355 22.4017 18.9562 22.134 18.2895 22.3212L18.8303 24.2467ZM18.8303 24.2467V24.2467L18.2895 22.3212C18.1367 22.3641 17.9896 22.4251 17.8512 22.5027L18.8303 24.2467ZM18.6652 25.8974C18.7405 25.1448 18.7889 24.6826 18.8628 24.3695C18.9377 24.0521 18.9804 24.1624 18.8303 24.2467L17.8512 22.5028C17.2474 22.8418 17.0271 23.4408 16.9163 23.9099C16.8045 24.3834 16.7445 25.0054 16.6752 25.6984L18.6652 25.8974ZM18.0525 27.8696C18.3413 27.5622 18.4648 27.2086 18.5328 26.8961C18.5959 26.606 18.6296 26.2538 18.6652 25.8974L16.6752 25.6984C16.6348 26.1017 16.6115 26.3192 16.5785 26.4708C16.5505 26.5999 16.5387 26.5599 16.595 26.5L18.0525 27.8696ZM17.8128 28.0865C17.8984 28.0208 17.9786 27.9482 18.0525 27.8696L16.595 26.5L16.595 26.5L17.8128 28.0865ZM15.7896 28.5C16.1476 28.5 16.5014 28.5015 16.7963 28.4676C17.1141 28.431 17.4782 28.3433 17.8128 28.0865L16.595 26.5C16.6602 26.4499 16.6988 26.4656 16.5676 26.4807C16.4135 26.4985 16.1948 26.5 15.7896 26.5V28.5ZM14.2103 28.5H15.7896V26.5H14.2103V28.5ZM12.1873 28.0866C12.5219 28.3434 12.8859 28.431 13.2037 28.4676C13.4986 28.5015 13.8523 28.5 14.2103 28.5V26.5C13.8051 26.5 13.5864 26.4985 13.4324 26.4807C13.3012 26.4656 13.3398 26.4499 13.405 26.5L12.1873 28.0866ZM11.9474 27.8695C12.0214 27.9482 12.1016 28.0208 12.1873 28.0866L13.405 26.5L13.405 26.5L11.9474 27.8695ZM11.3348 25.8977C11.3704 26.2539 11.4041 26.606 11.4672 26.8961C11.5352 27.2086 11.6586 27.5621 11.9474 27.8695L13.405 26.5C13.4613 26.5599 13.4495 26.5999 13.4214 26.4708C13.3885 26.3193 13.3652 26.1018 13.3248 25.6986L11.3348 25.8977ZM11.1697 24.247C11.0196 24.1627 11.0623 24.0524 11.1372 24.3697C11.2111 24.6828 11.2595 25.145 11.3348 25.8977L13.3248 25.6986C13.2555 25.0056 13.1955 24.3836 13.0837 23.9101C12.9729 23.4409 12.7525 22.8418 12.1486 22.5029L11.1697 24.247ZM11.1697 24.247L11.1697 24.247L12.1486 22.5029C12.0103 22.4253 11.8634 22.3644 11.7108 22.3215L11.1697 24.247ZM9.88573 25.2975C10.4712 24.8185 10.8322 24.5258 11.1058 24.3568C11.3833 24.1853 11.3354 24.2935 11.1697 24.247L11.7108 22.3215C11.0441 22.1342 10.4646 22.402 10.0545 22.6554C9.64063 22.9111 9.15829 23.3085 8.61925 23.7496L9.88573 25.2975ZM8.05815 26.2586C8.47967 26.2455 8.81696 26.0828 9.08607 25.9099C9.33581 25.7494 9.60862 25.5242 9.88573 25.2975L8.61925 23.7496C8.30562 24.0062 8.13538 24.1435 8.0049 24.2273C7.8938 24.2987 7.91373 24.2621 7.9959 24.2596L8.05815 26.2586ZM7.73508 26.2425C7.84215 26.2566 7.95019 26.262 8.05814 26.2586L7.99591 24.2596L7.99589 24.2596L7.73508 26.2425ZM6.0122 25.1043C6.26537 25.3575 6.51442 25.6087 6.74695 25.7932C6.99751 25.9921 7.31694 26.1875 7.73506 26.2425L7.99591 24.2596C8.07742 24.2703 8.09361 24.3087 7.99017 24.2266C7.86869 24.1302 7.71296 23.9766 7.42642 23.6901L6.0122 25.1043ZM4.89544 23.9875L6.0122 25.1043L7.42642 23.6901L6.30966 22.5733L4.89544 23.9875ZM3.75732 22.2648C3.81234 22.6829 4.00776 23.0023 4.20658 23.2529C4.39109 23.4854 4.6423 23.7344 4.89544 23.9875L6.30966 22.5733C6.02314 22.2868 5.86961 22.1311 5.77322 22.0096C5.69114 21.9062 5.72949 21.9224 5.74022 22.0039L3.75732 22.2648ZM3.74119 21.9415C3.73782 22.0496 3.74321 22.1577 3.75732 22.2648L5.74022 22.0039V22.0039L3.74119 21.9415ZM4.70227 20.1141C4.47556 20.3912 4.25038 20.664 4.08992 20.9137C3.91701 21.1828 3.75434 21.52 3.74119 21.9415L5.74022 22.0039C5.73766 22.0861 5.7011 22.106 5.77249 21.9949C5.85632 21.8644 5.99359 21.6942 6.25018 21.3806L4.70227 20.1141ZM5.75269 18.8303C5.70613 18.6645 5.81431 18.6167 5.64289 18.8941C5.47383 19.1677 5.18124 19.5287 4.70226 20.1141L6.25018 21.3806C6.69116 20.8416 7.08854 20.3593 7.34427 19.9455C7.59765 19.5354 7.86545 18.956 7.67814 18.2893L5.75269 18.8303ZM5.75269 18.8303L5.75269 18.8303L7.67814 18.2893C7.63525 18.1366 7.57434 17.9896 7.4967 17.8513L5.75269 18.8303ZM4.10214 18.6652C4.85477 18.7405 5.31691 18.7888 5.62991 18.8628C5.94725 18.9377 5.83696 18.9804 5.75269 18.8303L7.4967 17.8513C7.15771 17.2474 6.55867 17.0271 6.08956 16.9163C5.61609 16.8045 4.99408 16.7444 4.30115 16.6751L4.10214 18.6652ZM2.13046 18.0527C2.43779 18.3414 2.79128 18.4648 3.1038 18.5328C3.39382 18.5959 3.74593 18.6296 4.10214 18.6652L4.30115 16.6751C3.89798 16.6348 3.68055 16.6115 3.52904 16.5786C3.40001 16.5505 3.43995 16.5387 3.49986 16.595L2.13046 18.0527ZM1.91319 17.8126C1.979 17.8983 2.05166 17.9786 2.13047 18.0527L3.49986 16.595L3.49986 16.595L1.91319 17.8126ZM1.49986 15.7897C1.49986 16.1477 1.49832 16.5014 1.53225 16.7963C1.56882 17.114 1.65648 17.478 1.91319 17.8126L3.49986 16.595C3.54991 16.6602 3.53423 16.6988 3.51914 16.5676C3.50141 16.4136 3.49986 16.1949 3.49986 15.7897H1.49986ZM1.49986 14.2104V15.7897H3.49986V14.2104H1.49986ZM1.91334 12.1872C1.65654 12.5218 1.56885 12.8859 1.53227 13.2037C1.49832 13.4986 1.49986 13.8524 1.49986 14.2104H3.49986C3.49986 13.8052 3.50141 13.5865 3.51914 13.4324C3.53425 13.3012 3.54992 13.3398 3.49986 13.405L1.91334 12.1872ZM2.13028 11.9475C2.05161 12.0214 1.97907 12.1016 1.91334 12.1872L3.49987 13.405L3.49986 13.405L2.13028 11.9475ZM4.1023 11.3348C3.74602 11.3704 3.39384 11.4041 3.10376 11.4672C2.79118 11.5352 2.43763 11.6587 2.13028 11.9475L3.49986 13.405C3.43995 13.4613 3.4 13.4495 3.52904 13.4215C3.68059 13.3885 3.89806 13.3652 4.30131 13.3248L4.1023 11.3348ZM5.75317 11.1697C5.83742 11.0195 5.94776 11.0622 5.63037 11.1372C5.31732 11.2111 4.85508 11.2595 4.1023 11.3348L4.3013 13.3248C4.99438 13.2555 5.61652 13.1955 6.09007 13.0836C6.55927 12.9728 7.15842 12.7524 7.49736 12.1484L5.75317 11.1697ZM5.75317 11.1697L5.75317 11.1697L7.49736 12.1484C7.57485 12.0103 7.63567 11.8634 7.67853 11.711L5.75317 11.1697ZM4.70249 9.88552C5.18158 10.4711 5.47425 10.8322 5.64334 11.1058C5.81479 11.3833 5.70657 11.3355 5.75317 11.1697L7.67852 11.711C7.866 11.0442 7.59817 10.4646 7.34474 10.0545C7.08896 9.64057 6.69149 9.15815 6.2504 8.61904L4.70249 9.88552ZM3.74124 8.05756C3.75431 8.47917 3.91701 8.81653 4.08996 9.08569C4.25046 9.33548 4.47571 9.60835 4.70249 9.88552L6.2504 8.61904C5.99373 8.30534 5.85641 8.13506 5.77256 8.00455C5.70115 7.89342 5.73773 7.91336 5.74028 7.99555L3.74124 8.05756ZM3.75733 7.73494C3.74327 7.84187 3.73789 7.94976 3.74124 8.05756L5.74028 7.99555V7.99555L3.75733 7.73494ZM4.89565 6.01175C4.64244 6.26496 4.39116 6.51406 4.20661 6.74663C4.00774 6.99724 3.81229 7.31673 3.75733 7.73494L5.74027 7.99555C5.72956 8.07708 5.69119 8.09328 5.77328 7.98982C5.8697 7.86831 6.02327 7.71255 6.30987 7.42596L4.89565 6.01175ZM6.01226 4.89514L4.89565 6.01175L6.30987 7.42596L7.42647 6.30935L6.01226 4.89514ZM7.73512 3.75695C7.317 3.81195 6.99757 4.00738 6.747 4.20621C6.51448 4.39074 6.26543 4.64197 6.01226 4.89514L7.42647 6.30936C7.71301 6.02281 7.86875 5.86927 7.99023 5.77287C8.09367 5.69078 8.07748 5.72914 7.99596 5.73986L7.73512 3.75695ZM8.0582 3.74083C7.95025 3.73747 7.8422 3.74286 7.73512 3.75695L7.99597 5.73986L7.99596 5.73986L8.0582 3.74083ZM9.88588 4.70204C9.60874 4.47529 9.33591 4.25006 9.08616 4.08958C8.81705 3.91666 8.47975 3.75396 8.0582 3.74083L7.99596 5.73986C7.91377 5.73731 7.89384 5.70074 8.00497 5.77215C8.13547 5.856 8.30574 5.99332 8.61941 6.24995L9.88588 4.70204ZM11.1698 5.75248C11.3355 5.70594 11.3833 5.81411 11.1059 5.64267C10.8323 5.4736 10.4713 5.181 9.88588 4.70204L8.61941 6.24995C9.15838 6.69093 9.64066 7.08828 10.0545 7.34402C10.4645 7.59738 11.0438 7.86521 11.7104 7.67801L11.1698 5.75248ZM11.1698 5.75248H11.1698L11.7104 7.67801C11.8633 7.63508 12.0105 7.5741 12.149 7.49636L11.1698 5.75248ZM11.3348 4.10217C11.2595 4.85468 11.2112 5.31676 11.1373 5.62971C11.0624 5.94702 11.0197 5.83676 11.1698 5.75248L12.149 7.49636C12.7527 7.15734 12.973 6.55838 13.0838 6.08933C13.1955 5.61593 13.2556 4.994 13.3249 4.30117L11.3348 4.10217ZM11.9472 2.13073C11.6586 2.43804 11.5351 2.79149 11.4672 3.10396C11.4041 3.39395 11.3704 3.74601 11.3348 4.10217L13.3249 4.30117C13.3652 3.89806 13.3885 3.68067 13.4214 3.52917C13.4495 3.40016 13.4613 3.44009 13.405 3.5L11.9472 2.13073ZM12.1876 1.91321C12.1017 1.9791 12.0213 2.05184 11.9472 2.13073L13.405 3.5L13.405 3.5L12.1876 1.91321ZM14.2101 1.5C13.8522 1.5 13.4986 1.49845 13.2037 1.53238C12.886 1.56894 12.5221 1.65657 12.1876 1.91321L13.405 3.5C13.3398 3.55003 13.3012 3.53436 13.4324 3.51927C13.5864 3.50155 13.805 3.5 14.2101 3.5V1.5ZM15.7898 1.5H14.2101V3.5H15.7898V1.5ZM17.8125 1.9133C17.478 1.65661 17.114 1.56895 16.7963 1.53239C16.5014 1.49845 16.1477 1.5 15.7898 1.5V3.5C16.1949 3.5 16.4136 3.50155 16.5676 3.51927C16.6988 3.53437 16.6602 3.55004 16.595 3.5L17.8125 1.9133ZM18.0527 2.13064C17.9786 2.05181 17.8983 1.97913 17.8125 1.91329L16.595 3.5L16.595 3.5L18.0527 2.13064ZM18.9999 15C18.9999 17.2091 17.2091 19 14.9999 19V21C18.3136 21 20.9999 18.3137 20.9999 15H18.9999ZM14.9999 11C17.2091 11 18.9999 12.7909 18.9999 15H20.9999C20.9999 11.6863 18.3136 9 14.9999 9V11ZM10.9999 15C10.9999 12.7909 12.7908 11 14.9999 11V9C11.6862 9 8.99993 11.6863 8.99993 15H10.9999ZM14.9999 19C12.7908 19 10.9999 17.2091 10.9999 15H8.99993C8.99993 18.3137 11.6862 21 14.9999 21V19Z" fill="#274C77"/>
</svg>
